<?xml version="1.0" encoding="utf-8"?>
<!-- Generator: Adobe Illustrator 24.1.0, SVG Export Plug-In . SVG Version: 6.00 Build 0)  -->
<svg version="1.1" id="Layer_1" xmlns="http://www.w3.org/2000/svg" xmlns:xlink="http://www.w3.org/1999/xlink" x="0px" y="0px"
	 viewBox="0 0 512 512" style="enable-background:new 0 0 512 512;" xml:space="preserve">
<style type="text/css">
	.st0{fill:#535A5F;}
</style>
<g>
	<g>
		<g>
			<path class="st0" d="M16.2,256l0-1.1c0-4.5-3.6-8.1-8.1-8.1c0,0,0,0,0,0c-4.5,0-8.1,3.6-8.1,8.1l0,1.2c0,4.5,3.6,8.1,8.1,8.1
				S16.2,260.5,16.2,256z"/>
			<path class="st0" d="M19.9,298.7l-0.2-1.1c-0.7-4.4-4.9-7.4-9.3-6.7c-4.4,0.7-7.4,4.9-6.7,9.3l0.2,1.1c0.6,4,4.1,6.8,8,6.8
				c0.4,0,0.9,0,1.3-0.1C17.6,307.3,20.6,303.1,19.9,298.7z"/>
			<path class="st0" d="M33.9,344.5c-2.1-4-6.9-5.5-10.9-3.4c-4,2.1-5.5,6.9-3.4,10.9l0.5,1c1.4,2.8,4.3,4.3,7.2,4.3
				c1.3,0,2.5-0.3,3.7-0.9c4-2.1,5.5-6.9,3.4-10.9L33.9,344.5z"/>
			<path class="st0" d="M9.1,231.8c0.4,0,0.7,0.1,1.1,0.1c4,0,7.5-3,8-7C33.6,105.9,135.8,16.2,256,16.2c4.5,0,8.1-3.6,8.1-8.1
				S260.5,0,256,0C193.4,0,133.2,22.8,86.4,64.2C40,105.3,10.1,161.6,2.1,222.8C1.6,227.2,4.7,231.2,9.1,231.8z"/>
			<path class="st0" d="M328.7,280c-4-1.9-8.9-0.2-10.8,3.8c-0.2,0.5-0.5,0.9-0.7,1.4c-2,4-0.4,8.8,3.6,10.9
				c1.2,0.6,2.4,0.9,3.6,0.9c3,0,5.8-1.6,7.2-4.4c0.3-0.6,0.6-1.2,0.9-1.8C334.5,286.7,332.8,281.9,328.7,280z"/>
			<path class="st0" d="M492.1,213.3l0.2,1.1c0.6,4,4.1,6.8,8,6.8c0.4,0,0.9,0,1.3-0.1c4.4-0.7,7.4-4.9,6.7-9.3l-0.2-1.1
				c-0.7-4.4-4.9-7.4-9.3-6.7C494.4,204.7,491.4,208.9,492.1,213.3z"/>
			<path class="st0" d="M478.1,167.5c1.4,2.8,4.3,4.3,7.2,4.3c1.3,0,2.5-0.3,3.7-0.9c4-2.1,5.5-6.9,3.4-10.9l-0.5-1
				c-2.1-4-6.9-5.5-10.9-3.4c-4,2.1-5.5,6.9-3.4,10.9L478.1,167.5z"/>
			<path class="st0" d="M502.9,280.2c-4.4-0.6-8.5,2.5-9.1,7c-15.4,119-117.7,208.7-237.8,208.7c-4.5,0-8.1,3.6-8.1,8.1
				c0,4.5,3.6,8.1,8.1,8.1c62.6,0,122.8-22.8,169.6-64.2c46.4-41.1,76.3-97.4,84.2-158.5C510.4,284.8,507.3,280.8,502.9,280.2z"/>
			<path class="st0" d="M382.7,256c0-69.8-56.8-126.7-126.7-126.7S129.3,186.2,129.3,256S186.2,382.7,256,382.7
				S382.7,325.8,382.7,256z M145.5,256c0-60.9,49.6-110.5,110.5-110.5S366.5,195.1,366.5,256S316.9,366.5,256,366.5
				S145.5,316.9,145.5,256z"/>
			<path class="st0" d="M503.9,247.9c-4.5,0-8.1,3.6-8.1,8.1l0,1.1c0,4.5,3.6,8.1,8.1,8.1c0,0,0,0,0,0c4.5,0,8.1-3.6,8.1-8.1l0-1.2
				C512,251.5,508.4,247.9,503.9,247.9z"/>
			<path class="st0" d="M294.8,430.1v-6.6c18.5-4.3,36-11.5,52.2-21.6l4.6,4.6c15.1,15.1,39.8,15.1,54.9,0
				c15.1-15.1,15.1-39.7,0-54.9l-4.6-4.6c10.1-16.2,17.4-33.7,21.6-52.2h6.6c21.4,0,38.8-17.4,38.8-38.8s-17.4-38.8-38.8-38.8h-6.6
				c-4.3-18.5-11.5-36-21.6-52.2l4.6-4.6c15.1-15.1,15.1-39.7,0-54.9c-15.1-15.1-39.7-15.1-54.9,0l-4.6,4.6
				c-16.2-10.1-33.7-17.4-52.2-21.6v-6.6c0-21.4-17.4-38.8-38.8-38.8s-38.8,17.4-38.8,38.8v6.6c-18.5,4.3-36,11.5-52.2,21.6
				l-4.6-4.6c-15.1-15.1-39.8-15.1-54.9,0c-15.1,15.1-15.1,39.7,0,54.9l4.6,4.6c-10.1,16.2-17.4,33.7-21.6,52.2h-6.6
				c-21.4,0-38.8,17.4-38.8,38.8s17.4,38.8,38.8,38.8h6.6c4.3,18.5,11.5,36,21.6,52.2l-4.6,4.6c-15.1,15.1-15.1,39.7,0,54.9
				c15.1,15.1,39.7,15.1,54.9,0l4.6-4.6c16.2,10.1,33.7,17.4,52.2,21.6v6.6c0,21.4,17.4,38.8,38.8,38.8S294.8,451.5,294.8,430.1z
				 M233.4,430.1v-13.1c0-3.9-2.8-7.2-6.6-7.9c-21-4-40.6-12.1-58.3-24.2c-1.4-0.9-3-1.4-4.5-1.4c-2.1,0-4.2,0.8-5.7,2.4l-9.3,9.3
				c-8.8,8.8-23.2,8.8-32,0c-8.8-8.8-8.8-23.2,0-32l9.3-9.3c2.7-2.7,3.2-7.1,1-10.3c-12.1-17.7-20.2-37.3-24.2-58.3
				c-0.7-3.8-4.1-6.6-7.9-6.6H81.9c-12.5,0-22.6-10.2-22.6-22.6c0-12.5,10.2-22.6,22.6-22.6h13.1c3.9,0,7.2-2.8,7.9-6.6
				c4-21,12.1-40.6,24.2-58.3c2.2-3.2,1.8-7.5-1-10.3l-9.3-9.3c-8.8-8.8-8.8-23.2,0-32c8.8-8.8,23.2-8.8,32,0l9.3,9.3
				c2.7,2.7,7.1,3.2,10.3,1c17.7-12.1,37.3-20.2,58.3-24.2c3.8-0.7,6.6-4.1,6.6-7.9V81.9c0-12.5,10.2-22.6,22.6-22.6
				s22.6,10.2,22.6,22.6v13.1c0,3.9,2.8,7.2,6.6,7.9c21,4,40.6,12.1,58.3,24.2c3.2,2.2,7.5,1.8,10.3-1l9.3-9.3
				c8.8-8.8,23.2-8.8,32,0c8.8,8.8,8.8,23.2,0,32l-9.3,9.3c-2.7,2.7-3.2,7.1-1,10.3c12.1,17.7,20.2,37.3,24.2,58.3
				c0.7,3.8,4.1,6.6,7.9,6.6h13.1c12.5,0,22.6,10.2,22.6,22.6s-10.2,22.6-22.6,22.6h-13.1c-3.9,0-7.2,2.8-7.9,6.6
				c-4,21-12.1,40.6-24.2,58.3c-2.2,3.2-1.8,7.5,1,10.3l9.3,9.3c8.8,8.8,8.8,23.2,0,32c-8.8,8.8-23.2,8.8-32,0l-9.3-9.3
				c-2.7-2.7-7.1-3.1-10.3-1c-17.7,12.1-37.3,20.2-58.3,24.2c-3.8,0.7-6.6,4.1-6.6,7.9v13.1c0,12.5-10.2,22.6-22.6,22.6
				C243.5,452.7,233.4,442.6,233.4,430.1z"/>
			<path class="st0" d="M215.6,256c0,22.3,18.1,40.4,40.4,40.4s40.4-18.1,40.4-40.4s-18.1-40.4-40.4-40.4S215.6,233.7,215.6,256z
				 M280.3,256c0,13.4-10.9,24.3-24.3,24.3c-13.4,0-24.3-10.9-24.3-24.3c0-13.4,10.9-24.3,24.3-24.3
				C269.4,231.7,280.3,242.6,280.3,256z"/>
			<path class="st0" d="M209.2,207.5c12.6-12.2,29.2-18.9,46.8-18.9c37.1,0,67.4,30.2,67.4,67.4c0,4.5,3.6,8.1,8.1,8.1
				s8.1-3.6,8.1-8.1c0-46.1-37.5-83.5-83.5-83.5c-21.8,0-42.4,8.3-58,23.4c-3.2,3.1-3.3,8.2-0.2,11.4
				C200.9,210.5,206,210.6,209.2,207.5z"/>
			<path class="st0" d="M184.9,231.3c1.1,0.5,2.2,0.7,3.3,0.7c3.1,0,6-1.8,7.4-4.8c0.2-0.4,0.4-0.8,0.5-1.2c1.9-4,0.2-8.9-3.8-10.8
				c-4-1.9-8.9-0.2-10.8,3.8c-0.2,0.5-0.5,1-0.7,1.4C179.1,224.6,180.9,229.4,184.9,231.3z"/>
			<path class="st0" d="M315.1,315.1c3.2-3.2,3.2-8.3,0-11.4c-3.2-3.2-8.3-3.2-11.4,0c-12.7,12.7-29.6,19.7-47.6,19.7
				c-37.1,0-67.4-30.2-67.4-67.4c0-4.5-3.6-8.1-8.1-8.1s-8.1,3.6-8.1,8.1c0,46.1,37.5,83.5,83.5,83.5
				C278.3,339.5,299.3,330.8,315.1,315.1z"/>
		</g>
	</g>
</g>
</svg>
