<?xml version="1.0" encoding="utf-8"?>
<!-- Generator: Adobe Illustrator 24.1.0, SVG Export Plug-In . SVG Version: 6.00 Build 0)  -->
<svg version="1.1" id="Layer_1" xmlns="http://www.w3.org/2000/svg" xmlns:xlink="http://www.w3.org/1999/xlink" x="0px" y="0px"
	 viewBox="0 0 512 512" style="enable-background:new 0 0 512 512;" xml:space="preserve">
<style type="text/css">
	.st0{fill:#535A5F;}
</style>
<g>
	<g>
		<g>
			<path class="st0" d="M331.7,104.7c4.5-0.1,8-3.8,7.9-8.3c-1.1-43.1,33-79.1,76-80.2c20.9-0.6,40.7,7,55.8,21.4
				s23.8,33.8,24.4,54.6c0.6,20.9-7,40.7-21.4,55.8s-33.8,23.8-54.6,24.4c-19.6,0.5-38.7-6.3-53.5-19.3c-3.4-2.9-8.5-2.6-11.4,0.8
				c-2.9,3.4-2.6,8.5,0.8,11.4c17.2,15.1,39.2,23.3,62,23.3c0.8,0,1.7,0,2.5,0c25.2-0.7,48.6-11.1,65.9-29.4
				c17.3-18.3,26.5-42.2,25.8-67.4c-0.7-25.2-11.1-48.6-29.4-65.9C464.3,8.5,440.3-0.7,415.2,0c-52,1.4-93.2,44.8-91.8,96.8
				C323.5,101.3,327.3,104.8,331.7,104.7z"/>
			<path class="st0" d="M422.6,323.5c-23-1.2-45.5,6-63.5,20.3c-3.5,2.8-4.1,7.9-1.3,11.4c2.8,3.5,7.9,4.1,11.4,1.3
				c14.9-11.8,33.6-17.8,52.6-16.8c43,2.2,76.2,39.1,74,82.1c-1.1,20.8-10.2,40-25.7,54s-35.5,21.1-56.4,20
				c-20.8-1.1-40-10.2-54-25.7c-14-15.5-21.1-35.5-20-56.4c0.2-4.5-3.2-8.3-7.7-8.5c-4.4-0.2-8.3,3.2-8.5,7.7
				c-1.3,25.2,7.3,49.3,24.1,68c16.9,18.7,40,29.7,65.2,31c1.7,0.1,3.3,0.1,5,0.1c23.3,0,45.6-8.5,63-24.3
				c18.7-16.9,29.7-40,31-65.2C514.6,370.6,474.5,326.2,422.6,323.5z"/>
			<path class="st0" d="M417.7,468.9c28.2,0,51.2-23,51.2-51.2s-23-51.2-51.2-51.2c-17.1,0-32.3,8.4-41.6,21.4L143.2,271.4
				c1.5-4.9,2.4-10,2.4-15.4s-0.8-10.5-2.4-15.4l232.9-116.5c9.3,12.9,24.5,21.4,41.6,21.4c28.2,0,51.2-23,51.2-51.2
				s-23-51.2-51.2-51.2c-28.2,0-51.2,23-51.2,51.2c0,5.4,0.8,10.5,2.4,15.4L135.9,226.2c-9.3-12.9-24.5-21.4-41.6-21.4
				c-28.2,0-51.2,23-51.2,51.2s23,51.2,51.2,51.2c17.1,0,32.3-8.4,41.6-21.4l232.9,116.5c-1.5,4.9-2.4,10-2.4,15.4
				C366.5,445.9,389.5,468.9,417.7,468.9z M417.7,382.7c19.3,0,35,15.7,35,35c0,19.3-15.7,35-35,35c-19.3,0-35-15.7-35-35
				S398.4,382.7,417.7,382.7z M417.7,59.3c19.3,0,35,15.7,35,35s-15.7,35-35,35c-19.3,0-35-15.7-35-35
				C382.7,75,398.4,59.3,417.7,59.3z M94.3,291c-19.3,0-35-15.7-35-35s15.7-35,35-35c19.3,0,35,15.7,35,35S113.6,291,94.3,291z"/>
			<path class="st0" d="M129.3,325.9c-10.9,5.5-22.7,8.3-34.9,8.3c-43.1,0-78.1-35.1-78.1-78.1s35.1-78.1,78.1-78.1
				c12.3,0,24,2.8,34.9,8.3c4,2,8.9,0.4,10.8-3.6c2-4,0.4-8.9-3.6-10.8c-13.2-6.6-27.4-10-42.2-10C42.3,161.7,0,204,0,256
				s42.3,94.3,94.3,94.3c14.8,0,29-3.4,42.2-10c4-2,5.6-6.9,3.6-10.8C138.1,325.5,133.3,323.9,129.3,325.9z"/>
		</g>
	</g>
</g>
</svg>
