<?xml version="1.0" encoding="utf-8"?>
<!-- Generator: Adobe Illustrator 24.1.0, SVG Export Plug-In . SVG Version: 6.00 Build 0)  -->
<svg version="1.1" id="Layer_1" xmlns="http://www.w3.org/2000/svg" xmlns:xlink="http://www.w3.org/1999/xlink" x="0px" y="0px"
	 viewBox="0 0 512 512" style="enable-background:new 0 0 512 512;" xml:space="preserve">
<style type="text/css">
	.st0{fill:#535A5F;}
</style>
<g>
	<g>
		<g>
			<path class="st0" d="M414.7,218.3c0-4.5-3.6-8.1-8.1-8.1H212.7c-4.5,0-8.1,3.6-8.1,8.1c0,4.5,3.6,8.1,8.1,8.1h193.9
				C411.1,226.4,414.7,222.7,414.7,218.3z"/>
			<path class="st0" d="M245,285.6c-4.5,0-8.1,3.6-8.1,8.1s3.6,8.1,8.1,8.1h1.1c4.5,0,8.1-3.6,8.1-8.1s-3.6-8.1-8.1-8.1L245,285.6
				L245,285.6z"/>
			<path class="st0" d="M457.8,134.8V51.2c0-28.2-23-51.2-51.2-51.2H105.1C76.8,0,53.9,23,53.9,51.2v212.9
				C23.9,265.6,0,290.4,0,320.7c0,31.2,25.4,56.6,56.6,56.6h147.7v28c0,3.6,1.7,7,4.6,9.4c0,0,0,0,0,0c5,4,12.6,4,17.6,0l41.9-33.1
				c4-3.1,6.2-7.6,6.2-12.4s-2.3-9.2-6.2-12.4l-41.9-33.1c-5-4-12.6-4-17.6,0c-3,2.3-4.7,5.7-4.7,9.4v28H70V51.2
				c0-19.3,15.7-35,35-35h301.5c19.3,0,35,15.7,35,35v83.5H307v-28c0-3.6-1.7-7-4.7-9.4c-5-4-12.6-4-17.6,0l-41.9,33.1
				c-4,3.1-6.2,7.6-6.2,12.4s2.3,9.2,6.2,12.4l41.9,33.1c5,4,12.6,4,17.6,0c3-2.3,4.7-5.7,4.7-9.4v-28h142.6c0.1,0,0.1,0,0.2,0h5.7
				c22.3,0,40.4,18.1,40.4,40.4c0,21.5-16.9,39.1-38.1,40.4v-52.8c0-4.5-3.6-8.1-8.1-8.1s-8.1,3.6-8.1,8.1v281.9
				c0,19.3-15.7,35-35,35H105.1c-19.3,0-35-15.7-35-35v-54.4c0-4.5-3.6-8.1-8.1-8.1c-4.5,0-8.1,3.6-8.1,8.1v54.4
				c0,28.2,23,51.2,51.2,51.2h301.5c28.2,0,51.2-23,51.2-51.2V247.9c30.1-1.2,54.2-26.1,54.2-56.5C512,160.9,487.9,136,457.8,134.8z
				 M53.9,361c-21-1.4-37.7-19-37.7-40.3c0-21.4,16.7-38.9,37.7-40.3V361z M220.4,339.5l37.6,29.7l-37.6,29.7V339.5z M290.8,172.5
				l-37.6-29.7l37.6-29.7V172.5z"/>
			<path class="st0" d="M406.6,361.1h-96.9c-4.5,0-8.1,3.6-8.1,8.1c0,4.5,3.6,8.1,8.1,8.1h96.9c4.5,0,8.1-3.6,8.1-8.1
				C414.7,364.7,411.1,361.1,406.6,361.1z"/>
			<path class="st0" d="M105,301.8h107.7c4.5,0,8.1-3.6,8.1-8.1s-3.6-8.1-8.1-8.1H105c-4.5,0-8.1,3.6-8.1,8.1S100.6,301.8,105,301.8
				z"/>
			<path class="st0" d="M406.6,285.6h-96.9c-4.5,0-8.1,3.6-8.1,8.1s3.6,8.1,8.1,8.1h96.9c4.5,0,8.1-3.6,8.1-8.1
				S411.1,285.6,406.6,285.6z"/>
			<path class="st0" d="M210,142.8c0-4.5-3.6-8.1-8.1-8.1H105c-4.5,0-8.1,3.6-8.1,8.1c0,4.5,3.6,8.1,8.1,8.1H202
				C206.4,150.9,210,147.3,210,142.8z"/>
			<path class="st0" d="M276.3,301.8h1.1c4.5,0,8.1-3.6,8.1-8.1s-3.6-8.1-8.1-8.1h-1.1c-4.5,0-8.1,3.6-8.1,8.1
				S271.8,301.8,276.3,301.8z"/>
			<path class="st0" d="M179.3,210.2c-4.5,0-8.1,3.6-8.1,8.1c0,4.5,3.6,8.1,8.1,8.1h1.1c4.5,0,8.1-3.6,8.1-8.1
				c0-4.5-3.6-8.1-8.1-8.1H179.3z"/>
			<path class="st0" d="M105,226.4h43.1c4.5,0,8.1-3.6,8.1-8.1c0-4.5-3.6-8.1-8.1-8.1H105c-4.5,0-8.1,3.6-8.1,8.1
				S100.6,226.4,105,226.4z"/>
		</g>
	</g>
</g>
</svg>
