<?xml version="1.0" encoding="utf-8"?>
<!-- Generator: Adobe Illustrator 24.1.0, SVG Export Plug-In . SVG Version: 6.00 Build 0)  -->
<svg version="1.1" id="Capa_1" xmlns="http://www.w3.org/2000/svg" xmlns:xlink="http://www.w3.org/1999/xlink" x="0px" y="0px"
	 viewBox="0 0 60 60" style="enable-background:new 0 0 60 60;" xml:space="preserve">
<style type="text/css">
	.st0{fill:#DBDBDB;}
</style>
<g>
	<path class="st0" d="M55,45.4l-9.6-4.8c-0.9-0.5-1.5-1.4-1.5-2.4v-3.4c0.2-0.3,0.5-0.6,0.7-1c1.2-1.8,2.2-3.7,3-5.8
		c1.4-0.6,2.3-2,2.3-3.6v-4c0-1-0.4-1.9-1-2.6v-5.3c0.1-0.6,0.3-3.8-2.1-6.5c-2.1-2.3-5.4-3.5-9.9-3.5S29.1,3.7,27.1,6
		c-2.4,2.7-2.1,6-2.1,6.5v5.3c-0.6,0.7-1,1.7-1,2.6v4c0,1.2,0.6,2.4,1.5,3.1c0.9,3.6,2.8,6.4,3.5,7.2V38c0,1-0.5,1.9-1.4,2.3
		l-8.9,4.9C15.8,46.9,14,50,14,53.3v4.2h46v-4C60,50,58.1,46.9,55,45.4z"/>
	<path class="st0" d="M18,44l8.9-4.9c0.4-0.2,0.6-0.6,0.6-1v-2.8c-0.9-1.2-2.4-3.7-3.3-6.9c-1.1-1-1.7-2.4-1.7-3.9v-4
		c0-1.1,0.4-2.2,1-3.1v-4.7c0-0.4-0.1-1.3,0.1-2.4c-1.4-0.5-2.9-0.7-4.6-0.7c-10.4,0-11,8.9-11,9v4.6c-0.6,0.7-1,1.5-1,2.3V29
		c0,1.1,0.5,2.1,1.3,2.8c0.8,3.1,2.9,5.5,3.6,6.3v2.7c0,0.8-0.4,1.5-1.2,1.9L4,46.9c-2.5,1.4-4.1,4.1-4.1,7v3.8h12.5v-4.2
		C12.5,49.4,14.6,45.9,18,44z"/>
</g>
</svg>
