<?xml version="1.0" encoding="utf-8"?>
<!-- Generator: Adobe Illustrator 24.1.0, SVG Export Plug-In . SVG Version: 6.00 Build 0)  -->
<svg version="1.1" id="Capa_1" xmlns="http://www.w3.org/2000/svg" xmlns:xlink="http://www.w3.org/1999/xlink" x="0px" y="0px"
	 viewBox="0 0 55.8 55.8" style="enable-background:new 0 0 55.8 55.8;" xml:space="preserve">
<style type="text/css">
	.st0{fill:#535A5F;}
</style>
<g>
	<path class="st0" d="M31.8,43c0.3-0.3,0.5-0.6,0.7-0.9l21.6-21.6c2.1-2.1,2.1-5.5,0-7.6c-2.1-2.1-5.5-2.1-7.6,0L27.9,31.5L9.2,12.8
		c-2.1-2.1-5.5-2.1-7.6,0C0.5,13.8,0,15.2,0,16.6c0,1.4,0.5,2.8,1.6,3.8l21.7,21.7c0.2,0.3,0.4,0.6,0.7,0.9c1.1,1.1,2.5,1.6,3.9,1.6
		C29.3,44.6,30.8,44.1,31.8,43z"/>
</g>
</svg>
