<?xml version="1.0" encoding="utf-8"?>
<!-- Generator: Adobe Illustrator 24.1.0, SVG Export Plug-In . SVG Version: 6.00 Build 0)  -->
<svg version="1.1" id="Capa_1" xmlns="http://www.w3.org/2000/svg" xmlns:xlink="http://www.w3.org/1999/xlink" x="0px" y="0px"
	 viewBox="0 0 60 60" style="enable-background:new 0 0 60 60;" xml:space="preserve">
<style type="text/css">
	.st0{fill:#DBDBDB;}
</style>
<g>
	<circle class="st0" cx="21" cy="53" r="2"/>
	<path class="st0" d="M38,12V4.4C38,2,36,0,33.6,0H8.4C6,0,4,2,4,4.4v51.2C4,58,6,60,8.4,60h25.2c2.4,0,4.4-2,4.4-4.4V33h18V12H38z
		 M24,3h1c0.6,0,1,0.4,1,1s-0.4,1-1,1h-1c-0.6,0-1-0.4-1-1S23.4,3,24,3z M17,3h4c0.6,0,1,0.4,1,1s-0.4,1-1,1h-4c-0.6,0-1-0.4-1-1
		S16.4,3,17,3z M21,57c-2.2,0-4-1.8-4-4s1.8-4,4-4s4,1.8,4,4S23.2,57,21,57z M36,46H6V8h30v4H18v21h4v7l9.3-7H36V46z M36,20
		c0,0.6-0.4,1-1,1H25c-0.6,0-1-0.4-1-1s0.4-1,1-1h10C35.6,19,36,19.4,36,20z M49,26H25c-0.6,0-1-0.4-1-1s0.4-1,1-1h24
		c0.6,0,1,0.4,1,1S49.6,26,49,26z"/>
</g>
</svg>
