<?xml version="1.0" encoding="utf-8"?>
<!-- Generator: Adobe Illustrator 24.1.0, SVG Export Plug-In . SVG Version: 6.00 Build 0)  -->
<svg version="1.1" id="_24x24_On_Light_Notification-Alert"
	 xmlns="http://www.w3.org/2000/svg" xmlns:xlink="http://www.w3.org/1999/xlink" x="0px" y="0px" viewBox="0 0 18.8 20"
	 style="enable-background:new 0 0 18.8 20;" xml:space="preserve">
<style type="text/css">
	.st0{fill:none;}
	.st1{fill:#535A5F;}
	.st2{fill:#FF6359;}
</style>
<rect id="view-box" x="-3.2" y="-2" class="st0" width="24" height="24"/>
<path id="Shape" class="st1" d="M6,17.2v-0.5H2.3c-1.2,0-2.2-1-2.3-2.2v-0.4c0-1,0.5-1.9,1.4-2.3c0.4-0.2,0.6-0.6,0.7-1l0.4-4.9
	C2.9,2.5,5.9,0,9.3,0.3c0.4,0,0.9,0.1,1.3,0.3C10.3,1,10.1,1.4,10,1.9C9.6,1.8,9.2,1.7,8.8,1.7C6.3,1.7,4.3,3.6,4,6L3.6,11
	c-0.1,1-0.7,1.8-1.5,2.2c-0.4,0.2-0.6,0.5-0.6,0.9v0.4c0,0.4,0.3,0.7,0.8,0.7h13c0.4,0,0.7-0.3,0.7-0.8v-0.4c0-0.4-0.2-0.8-0.6-0.9
	c-0.9-0.4-1.4-1.3-1.5-2.2l-0.2-2.2c0.5,0.1,1,0.2,1.5,0.2l0.2,1.8c0,0.4,0.3,0.8,0.7,1c0.9,0.4,1.4,1.3,1.4,2.3v0.4
	c0,1.2-1,2.2-2.2,2.2h-3.7v0.5c0,1.5-1.2,2.8-2.8,2.8S6,18.8,6,17.2z M7.5,17.2c0,0.7,0.6,1.3,1.3,1.3s1.3-0.6,1.3-1.3v-0.5H7.5
	V17.2z M15,7c-0.5,0-1.1-0.2-1.5-0.5l0-0.5c-0.1-1.2-0.7-2.4-1.6-3.2c0.1-0.5,0.3-1,0.6-1.4c1.4,1.1,2.4,2.7,2.5,4.5L15,7L15,7L15,7
	z"/>
<path id="Shape-2" class="st2" d="M15.3,7c-1.9,0-3.5-1.6-3.5-3.5S13.3,0,15.3,0s3.5,1.6,3.5,3.5S17.2,7,15.3,7z"/>
</svg>
