<?xml version="1.0" encoding="utf-8"?>
<!-- Generator: Adobe Illustrator 24.1.0, SVG Export Plug-In . SVG Version: 6.00 Build 0)  -->
<svg version="1.1" id="Capa_1" xmlns="http://www.w3.org/2000/svg" xmlns:xlink="http://www.w3.org/1999/xlink" x="0px" y="0px"
	 viewBox="0 0 57.9 57.9" style="enable-background:new 0 0 57.9 57.9;" xml:space="preserve">
<style type="text/css">
	.st0{fill:#DBDBDB;}
</style>
<path class="st0" d="M57.7,27.9C50,20.2,39.9,16,29.1,16H29l0,0h-0.1C18.1,16,8.1,20.3,0.5,27.9l-0.2,0.2c-0.4,0.4-0.4,1,0,1.4
	c0.2,0.2,0.4,0.3,0.7,0.3s0.5-0.1,0.7-0.3l0.2-0.2c5.2-5.3,11.8-8.8,18.9-10.4c-2.9,2.4-4.8,6-4.8,10.1c0,7.2,5.8,13,13,13
	s13-5.8,13-13c0-4.1-1.9-7.8-4.9-10.2c7.2,1.5,13.9,5.1,19.2,10.5c0.4,0.4,1,0.4,1.4,0C58,28.9,58,28.3,57.7,27.9z M29,37
	c-4.4,0-8-3.6-8-8s3.6-8,8-8c0.6,0,1,0.4,1,1s-0.4,1-1,1c-3.3,0-6,2.7-6,6s2.7,6,6,6s6-2.7,6-6c0-0.6,0.4-1,1-1s1,0.4,1,1
	C37,33.4,33.4,37,29,37z"/>
</svg>
