<?xml version="1.0" encoding="utf-8"?>
<!-- Generator: Adobe Illustrator 24.1.0, SVG Export Plug-In . SVG Version: 6.00 Build 0)  -->
<svg version="1.1" id="Capa_1" xmlns="http://www.w3.org/2000/svg" xmlns:xlink="http://www.w3.org/1999/xlink" x="0px" y="0px"
	 viewBox="0 0 60 60" style="enable-background:new 0 0 60 60;" xml:space="preserve">
<style type="text/css">
	.st0{fill:#DBDBDB;}
</style>
<path class="st0" d="M48,42.9l-9.6-4.8c-0.9-0.5-1.5-1.4-1.5-2.4v-3.4c0.2-0.3,0.5-0.6,0.7-1c1.2-1.8,2.2-3.7,3-5.8
	c1.4-0.6,2.3-2,2.3-3.6v-4c0-1-0.4-1.9-1-2.6V10c0.1-0.6,0.3-3.8-2.1-6.5C37.9,1.2,34.5,0,30,0s-7.9,1.2-9.9,3.5
	C17.7,6.2,18,9.5,18,10v5.3c-0.6,0.7-1,1.7-1,2.6v4c0,1.2,0.6,2.4,1.5,3.1c0.9,3.6,2.8,6.4,3.5,7.2v3.3c0,1-0.5,1.9-1.4,2.3
	l-8.9,4.9C8.8,44.4,7,47.5,7,50.8V54c0,4.7,15,6,23,6s23-1.3,23-6v-3C53,47.5,51.1,44.4,48,42.9z"/>
</svg>
