<?xml version="1.0" encoding="utf-8"?>
<!-- Generator: Adobe Illustrator 24.1.0, SVG Export Plug-In . SVG Version: 6.00 Build 0)  -->
<svg version="1.1" id="Capa_1" xmlns="http://www.w3.org/2000/svg" xmlns:xlink="http://www.w3.org/1999/xlink" x="0px" y="0px"
	 viewBox="0 0 54 54" style="enable-background:new 0 0 54 54;" xml:space="preserve">
<style type="text/css">
	.st0{fill:#DBDBDB;}
</style>
<g>
	<path class="st0" d="M27,18c-5,0-9,4-9,9s4,9,9,9s9-4,9-9S32,18,27,18z"/>
	<path class="st0" d="M51.2,21h-2c-0.5-1.9-1.3-3.7-2.3-5.5l1.4-1.4c0.5-0.5,0.8-1.2,0.8-2c0-0.7-0.3-1.4-0.8-2l-4.6-4.6
		c-1-1-2.9-1.1-3.9,0l-1.4,1.4c-1.7-1-3.5-1.7-5.5-2.3v-2C33,1.2,31.8,0,30.2,0h-6.4C22.2,0,21,1.2,21,2.8v2
		c-1.9,0.5-3.7,1.3-5.5,2.3l-1.4-1.4c-1.1-1.1-2.9-1-3.9,0l-4.6,4.6c-0.5,0.5-0.8,1.2-0.8,2c0,0.7,0.3,1.4,0.8,2L7,15.7
		c-1,1.7-1.7,3.5-2.3,5.5h-2C1.2,21,0,22.2,0,23.8v6.4C0,31.8,1.2,33,2.8,33h2c0.5,1.9,1.3,3.7,2.3,5.5l-1.4,1.4
		c-0.5,0.5-0.8,1.2-0.8,2c0,0.7,0.3,1.4,0.8,2l4.6,4.6c1.1,1.1,2.9,1.1,3.9,0l1.4-1.4c1.7,1,3.5,1.7,5.5,2.3v2
		c0,1.5,1.2,2.8,2.8,2.8h6.4c1.5,0,2.8-1.2,2.8-2.8v-2c1.9-0.5,3.7-1.3,5.5-2.3l1.4,1.4c1.1,1.1,2.9,1,3.9,0l4.6-4.6
		c0.5-0.5,0.8-1.2,0.8-2c0-0.7-0.3-1.4-0.8-2l-1.4-1.4c1-1.7,1.7-3.5,2.3-5.5h2c1.5,0,2.8-1.2,2.8-2.8v-6.4C54,22.2,52.8,21,51.2,21
		z M39,27c0,6.6-5.4,12-12,12s-12-5.4-12-12s5.4-12,12-12S39,20.4,39,27z"/>
</g>
</svg>
