<?xml version="1.0" encoding="utf-8"?>
<!-- Generator: Adobe Illustrator 24.1.0, SVG Export Plug-In . SVG Version: 6.00 Build 0)  -->
<svg version="1.1" id="Capa_1" xmlns="http://www.w3.org/2000/svg" xmlns:xlink="http://www.w3.org/1999/xlink" x="0px" y="0px"
	 viewBox="0 0 60 60" style="enable-background:new 0 0 60 60;" xml:space="preserve">
<style type="text/css">
	.st0{fill:#DBDBDB;}
</style>
<path class="st0" d="M59.4,11.6l-15-7l0,0c-0.1-0.1-0.2-0.1-0.4-0.1l0,0c0,0,0,0-0.1,0s-0.1,0-0.2,0h-0.1c0,0,0,0-0.1,0L30,10.4
	L16.4,4.6l0,0c-0.1,0-0.2-0.1-0.3-0.1l0,0c0,0,0,0-0.1,0s-0.1,0-0.2,0h-0.1c0,0,0,0-0.1,0l-15,6c-0.4,0.2-0.6,0.6-0.6,1v43
	c0,0.3,0.2,0.6,0.4,0.8c0.2,0.1,0.4,0.2,0.6,0.2c0.1,0,0.3,0,0.4-0.1L16,49.6l13.6,5.8l0,0c0.1,0,0.2,0.1,0.4,0.1s0.2,0,0.4-0.1l0,0
	L44,49.6l14.6,5.8c0.1,0,0.2,0.1,0.4,0.1s0.4-0.1,0.6-0.2c0.3-0.2,0.4-0.5,0.4-0.8v-42C60,12.1,59.8,11.8,59.4,11.6z M17,7l12,5.1
	V53l-12-5.1V7z M58,53l-13-5.2V7.1l13,6.1V53z"/>
</svg>
